<svg xmlns="http://www.w3.org/2000/svg" xmlns:xlink="http://www.w3.org/1999/xlink" width="500" zoomAndPan="magnify" viewBox="0 0 375 374.999991" height="500" preserveAspectRatio="xMidYMid meet" version="1.0"><defs><clipPath id="ae5e7922cd"><path d="M 11.21875 12 L 363.71875 12 L 363.71875 364 L 11.21875 364 Z M 11.21875 12 " clip-rule="nonzero"/></clipPath></defs><g clip-path="url(#ae5e7922cd)"><path fill="#ffffff" d="M 187.46875 12.773438 C 184.585938 12.773438 181.707031 12.847656 178.832031 12.992188 C 175.953125 13.136719 173.082031 13.351562 170.214844 13.636719 C 167.347656 13.921875 164.488281 14.277344 161.640625 14.703125 C 158.792969 15.128906 155.953125 15.625 153.128906 16.1875 C 150.304688 16.753906 147.496094 17.386719 144.699219 18.085938 C 141.90625 18.789062 139.132812 19.558594 136.375 20.398438 C 133.617188 21.234375 130.882812 22.140625 128.171875 23.113281 C 125.460938 24.085938 122.773438 25.125 120.113281 26.226562 C 117.453125 27.332031 114.820312 28.5 112.214844 29.734375 C 109.613281 30.964844 107.039062 32.261719 104.5 33.621094 C 101.960938 34.980469 99.453125 36.398438 96.984375 37.882812 C 94.511719 39.363281 92.082031 40.90625 89.6875 42.507812 C 87.289062 44.105469 84.9375 45.765625 82.621094 47.484375 C 80.308594 49.199219 78.039062 50.972656 75.8125 52.800781 C 73.585938 54.625 71.40625 56.507812 69.269531 58.441406 C 67.136719 60.378906 65.050781 62.363281 63.011719 64.398438 C 60.976562 66.4375 58.988281 68.523438 57.054688 70.65625 C 55.121094 72.792969 53.238281 74.972656 51.410156 77.199219 C 49.582031 79.425781 47.808594 81.695312 46.09375 84.007812 C 44.378906 86.320312 42.71875 88.675781 41.117188 91.070312 C 39.515625 93.464844 37.972656 95.898438 36.492188 98.367188 C 35.011719 100.839844 33.589844 103.34375 32.230469 105.882812 C 30.871094 108.421875 29.574219 110.996094 28.34375 113.597656 C 27.109375 116.203125 25.941406 118.832031 24.835938 121.496094 C 23.734375 124.15625 22.695312 126.839844 21.722656 129.554688 C 20.75 132.265625 19.84375 135 19.007812 137.753906 C 18.167969 140.511719 17.398438 143.285156 16.695312 146.078125 C 15.992188 148.875 15.359375 151.683594 14.796875 154.507812 C 14.230469 157.332031 13.738281 160.167969 13.3125 163.019531 C 12.886719 165.867188 12.53125 168.726562 12.246094 171.589844 C 11.960938 174.457031 11.746094 177.328125 11.601562 180.207031 C 11.457031 183.082031 11.382812 185.960938 11.378906 188.84375 C 21.046875 422.421875 353.925781 422.351562 363.558594 188.84375 C 363.554688 185.960938 363.480469 183.082031 363.335938 180.207031 C 363.191406 177.328125 362.976562 174.457031 362.691406 171.589844 C 362.40625 168.722656 362.050781 165.867188 361.625 163.015625 C 361.199219 160.167969 360.707031 157.332031 360.140625 154.507812 C 359.578125 151.679688 358.941406 148.871094 358.242188 146.078125 C 357.539062 143.285156 356.769531 140.507812 355.929688 137.753906 C 355.09375 134.996094 354.1875 132.261719 353.214844 129.550781 C 352.242188 126.839844 351.203125 124.152344 350.101562 121.492188 C 348.996094 118.832031 347.828125 116.199219 346.59375 113.597656 C 345.363281 110.992188 344.066406 108.421875 342.707031 105.882812 C 341.347656 103.34375 339.925781 100.835938 338.445312 98.367188 C 336.960938 95.894531 335.421875 93.464844 333.820312 91.070312 C 332.21875 88.675781 330.558594 86.320312 328.84375 84.007812 C 327.125 81.695312 325.355469 79.421875 323.527344 77.195312 C 321.699219 74.972656 319.816406 72.789062 317.882812 70.65625 C 315.945312 68.523438 313.960938 66.4375 311.925781 64.398438 C 309.886719 62.363281 307.800781 60.375 305.667969 58.441406 C 303.53125 56.507812 301.351562 54.625 299.125 52.796875 C 296.898438 50.96875 294.628906 49.199219 292.3125 47.480469 C 290 45.765625 287.644531 44.105469 285.25 42.503906 C 282.855469 40.90625 280.421875 39.363281 277.953125 37.882812 C 275.480469 36.398438 272.976562 34.980469 270.4375 33.621094 C 267.898438 32.261719 265.324219 30.964844 262.722656 29.730469 C 260.117188 28.5 257.484375 27.332031 254.824219 26.226562 C 252.164062 25.125 249.476562 24.085938 246.765625 23.113281 C 244.050781 22.140625 241.320312 21.234375 238.5625 20.398438 C 235.804688 19.558594 233.03125 18.789062 230.238281 18.085938 C 227.441406 17.386719 224.632812 16.753906 221.808594 16.1875 C 218.984375 15.625 216.144531 15.128906 213.296875 14.703125 C 210.445312 14.277344 207.589844 13.921875 204.722656 13.636719 C 201.855469 13.351562 198.984375 13.136719 196.105469 12.992188 C 193.230469 12.847656 190.347656 12.773438 187.46875 12.773438 Z M 187.46875 348 C 184.863281 347.996094 182.261719 347.929688 179.660156 347.800781 C 177.058594 347.667969 174.464844 347.476562 171.871094 347.21875 C 169.28125 346.960938 166.699219 346.636719 164.121094 346.253906 C 161.546875 345.871094 158.980469 345.421875 156.425781 344.914062 C 153.875 344.402344 151.335938 343.828125 148.808594 343.195312 C 146.28125 342.558594 143.773438 341.863281 141.28125 341.105469 C 138.792969 340.347656 136.320312 339.53125 133.867188 338.652344 C 131.417969 337.773438 128.988281 336.835938 126.582031 335.835938 C 124.179688 334.839844 121.796875 333.78125 119.445312 332.667969 C 117.089844 331.554688 114.765625 330.382812 112.46875 329.15625 C 110.171875 327.925781 107.910156 326.640625 105.675781 325.300781 C 103.441406 323.964844 101.242188 322.570312 99.078125 321.121094 C 96.914062 319.675781 94.785156 318.175781 92.695312 316.625 C 90.601562 315.074219 88.550781 313.46875 86.539062 311.820312 C 84.523438 310.167969 82.554688 308.464844 80.625 306.71875 C 78.695312 304.96875 76.808594 303.171875 74.96875 301.332031 C 73.125 299.492188 71.332031 297.605469 69.582031 295.675781 C 67.832031 293.746094 66.132812 291.777344 64.480469 289.761719 C 62.828125 287.75 61.226562 285.699219 59.671875 283.609375 C 58.121094 281.515625 56.621094 279.390625 55.175781 277.222656 C 53.726562 275.058594 52.332031 272.859375 50.996094 270.628906 C 49.65625 268.394531 48.371094 266.128906 47.140625 263.835938 C 45.914062 261.539062 44.742188 259.214844 43.628906 256.859375 C 42.511719 254.507812 41.457031 252.128906 40.457031 249.722656 C 39.460938 247.316406 38.523438 244.890625 37.644531 242.4375 C 36.765625 239.988281 35.945312 237.515625 35.1875 235.023438 C 34.429688 232.53125 33.734375 230.023438 33.097656 227.5 C 32.464844 224.972656 31.890625 222.433594 31.382812 219.882812 C 30.871094 217.328125 30.421875 214.761719 30.039062 212.1875 C 29.65625 209.613281 29.332031 207.027344 29.074219 204.4375 C 28.816406 201.847656 28.625 199.25 28.492188 196.648438 C 28.363281 194.050781 28.296875 191.449219 28.292969 188.84375 C 37.035156 -22.304688 337.933594 -22.242188 346.644531 188.84375 C 346.640625 191.449219 346.574219 194.050781 346.445312 196.652344 C 346.3125 199.253906 346.121094 201.847656 345.863281 204.4375 C 345.605469 207.03125 345.28125 209.613281 344.898438 212.1875 C 344.515625 214.765625 344.066406 217.328125 343.554688 219.882812 C 343.046875 222.4375 342.472656 224.976562 341.839844 227.5 C 341.203125 230.027344 340.507812 232.535156 339.75 235.027344 C 338.992188 237.515625 338.171875 239.988281 337.292969 242.4375 C 336.414062 244.890625 335.476562 247.316406 334.480469 249.722656 C 333.480469 252.128906 332.425781 254.507812 331.308594 256.859375 C 330.195312 259.214844 329.023438 261.539062 327.796875 263.835938 C 326.566406 266.132812 325.28125 268.394531 323.941406 270.628906 C 322.601562 272.859375 321.210938 275.058594 319.761719 277.226562 C 318.316406 279.390625 316.816406 281.515625 315.261719 283.609375 C 313.710938 285.699219 312.109375 287.75 310.457031 289.765625 C 308.804688 291.777344 307.105469 293.746094 305.355469 295.675781 C 303.605469 297.605469 301.808594 299.492188 299.96875 301.332031 C 298.128906 303.171875 296.242188 304.96875 294.3125 306.71875 C 292.382812 308.464844 290.410156 310.167969 288.398438 311.820312 C 286.386719 313.472656 284.335938 315.074219 282.242188 316.625 C 280.152344 318.175781 278.023438 319.675781 275.859375 321.121094 C 273.691406 322.570312 271.496094 323.964844 269.261719 325.304688 C 267.027344 326.640625 264.761719 327.925781 262.46875 329.15625 C 260.171875 330.382812 257.847656 331.554688 255.492188 332.667969 C 253.136719 333.785156 250.757812 334.839844 248.355469 335.835938 C 245.949219 336.835938 243.519531 337.773438 241.070312 338.652344 C 238.617188 339.53125 236.144531 340.347656 233.652344 341.105469 C 231.164062 341.863281 228.652344 342.558594 226.128906 343.195312 C 223.601562 343.828125 221.0625 344.402344 218.507812 344.914062 C 215.957031 345.421875 213.390625 345.871094 210.816406 346.253906 C 208.238281 346.636719 205.65625 346.960938 203.066406 347.21875 C 200.472656 347.476562 197.878906 347.667969 195.277344 347.800781 C 192.675781 347.929688 190.074219 347.996094 187.46875 348 Z M 259.039062 129.234375 L 199.425781 188.84375 L 259.039062 248.453125 C 259.433594 248.84375 259.785156 249.269531 260.09375 249.734375 C 260.398438 250.195312 260.660156 250.683594 260.875 251.195312 C 261.085938 251.707031 261.246094 252.234375 261.355469 252.78125 C 261.460938 253.324219 261.515625 253.875 261.515625 254.429688 C 261.515625 254.984375 261.460938 255.535156 261.355469 256.078125 C 261.246094 256.625 261.085938 257.152344 260.875 257.664062 C 260.660156 258.179688 260.398438 258.664062 260.09375 259.128906 C 259.785156 259.589844 259.433594 260.015625 259.039062 260.410156 C 258.648438 260.800781 258.222656 261.152344 257.757812 261.460938 C 257.296875 261.769531 256.808594 262.027344 256.296875 262.242188 C 255.785156 262.453125 255.253906 262.613281 254.710938 262.722656 C 254.167969 262.832031 253.617188 262.882812 253.0625 262.882812 C 252.507812 262.882812 251.957031 262.832031 251.410156 262.722656 C 250.867188 262.613281 250.339844 262.453125 249.824219 262.242188 C 249.3125 262.027344 248.824219 261.769531 248.363281 261.460938 C 247.902344 261.152344 247.476562 260.800781 247.082031 260.410156 L 187.46875 200.800781 L 127.855469 260.410156 C 127.460938 260.800781 127.035156 261.152344 126.574219 261.460938 C 126.113281 261.769531 125.625 262.03125 125.109375 262.242188 C 124.597656 262.457031 124.070312 262.617188 123.523438 262.726562 C 122.980469 262.835938 122.429688 262.890625 121.875 262.890625 C 121.320312 262.890625 120.769531 262.835938 120.222656 262.726562 C 119.679688 262.617188 119.148438 262.457031 118.636719 262.246094 C 118.125 262.035156 117.636719 261.773438 117.175781 261.464844 C 116.710938 261.15625 116.285156 260.804688 115.890625 260.414062 C 115.5 260.019531 115.148438 259.59375 114.839844 259.132812 C 114.53125 258.667969 114.269531 258.179688 114.058594 257.667969 C 113.847656 257.15625 113.6875 256.625 113.578125 256.082031 C 113.46875 255.535156 113.414062 254.988281 113.414062 254.429688 C 113.414062 253.875 113.46875 253.324219 113.578125 252.78125 C 113.6875 252.238281 113.847656 251.707031 114.0625 251.195312 C 114.273438 250.683594 114.535156 250.195312 114.84375 249.734375 C 115.152344 249.269531 115.503906 248.84375 115.898438 248.453125 L 175.511719 188.84375 L 115.898438 129.234375 C 115.503906 128.84375 115.152344 128.414062 114.84375 127.953125 C 114.535156 127.492188 114.273438 127.003906 114.0625 126.492188 C 113.847656 125.980469 113.6875 125.449219 113.578125 124.90625 C 113.46875 124.359375 113.414062 123.808594 113.414062 123.253906 C 113.414062 122.699219 113.46875 122.148438 113.574219 121.605469 C 113.683594 121.058594 113.84375 120.53125 114.058594 120.015625 C 114.269531 119.503906 114.53125 119.015625 114.839844 118.554688 C 115.148438 118.09375 115.496094 117.664062 115.890625 117.273438 C 116.285156 116.878906 116.710938 116.527344 117.171875 116.21875 C 117.636719 115.910156 118.121094 115.652344 118.636719 115.4375 C 119.148438 115.226562 119.679688 115.066406 120.222656 114.957031 C 120.769531 114.847656 121.320312 114.796875 121.875 114.796875 C 122.429688 114.796875 122.980469 114.851562 123.523438 114.960938 C 124.070312 115.066406 124.597656 115.230469 125.113281 115.441406 C 125.625 115.65625 126.113281 115.917969 126.574219 116.226562 C 127.035156 116.535156 127.460938 116.886719 127.855469 117.277344 L 187.46875 176.886719 L 247.082031 117.277344 C 247.476562 116.898438 247.90625 116.558594 248.367188 116.261719 C 248.828125 115.964844 249.3125 115.714844 249.824219 115.511719 C 250.332031 115.308594 250.859375 115.15625 251.398438 115.058594 C 251.9375 114.957031 252.480469 114.910156 253.027344 114.914062 C 253.578125 114.917969 254.121094 114.976562 254.65625 115.089844 C 255.195312 115.199219 255.714844 115.359375 256.222656 115.574219 C 256.726562 115.785156 257.207031 116.042969 257.664062 116.351562 C 258.117188 116.65625 258.539062 117.003906 258.929688 117.390625 C 259.316406 117.777344 259.664062 118.199219 259.96875 118.65625 C 260.273438 119.109375 260.535156 119.589844 260.746094 120.097656 C 260.957031 120.601562 261.121094 121.125 261.230469 121.660156 C 261.339844 122.199219 261.398438 122.742188 261.40625 123.289062 C 261.410156 123.839844 261.363281 124.382812 261.261719 124.921875 C 261.160156 125.460938 261.007812 125.984375 260.808594 126.496094 C 260.605469 127.003906 260.355469 127.488281 260.058594 127.949219 C 259.757812 128.410156 259.421875 128.839844 259.039062 129.234375 Z M 259.039062 129.234375 " fill-opacity="1" fill-rule="nonzero"/></g></svg>